<svg aria-hidden="true" style="position: absolute; width: 0; height: 0; overflow: hidden;" version="1.1" xmlns="http://www.w3.org/2000/svg" xmlns:xlink="http://www.w3.org/1999/xlink">
<defs>
<symbol id="reshot-icon-phone-YUPNL5R2TW" viewBox="0 0 32 32">
<path d="M31.328 23.030l-4.793-4.793c-0.426-0.427-0.993-0.662-1.596-0.662 0 0-0.001 0-0.002 0-0.603 0-1.171 0.236-1.596 0.662l-3.195 3.195-9.587-9.587 3.195-3.195c0.881-0.881 0.881-2.316-0.001-3.197l-4.794-4.793c-0.426-0.426-0.993-0.661-1.596-0.661h-0.001c-0.604 0-1.172 0.236-1.598 0.663l-4.794 4.794c-0.146 0.145-1.409 1.512-0.809 4.516 0.707 3.535 3.667 7.93 8.798 13.061 7.343 7.343 11.974 8.967 14.635 8.967 1.842 0 2.741-0.778 2.942-0.98l4.793-4.793c0.427-0.427 0.663-0.995 0.662-1.6 0-0.603-0.235-1.172-0.662-1.599zM24.937 29.423c-0.032 0.032-3.852 2.541-14.382-7.988-10.757-10.756-7.984-14.382-7.989-14.38l4.794-4.795 4.794 4.795-3.994 3.994c-0.442 0.442-0.442 1.156 0 1.598l11.184 11.184c0.442 0.442 1.156 0.442 1.598 0l3.994-3.995 4.794 4.795-4.793 4.793z"></path>
</symbol>
<symbol id="telegram-logo-thin-svgrepo-com" viewBox="0 0 32 32">
<path d="M28.581 4.346c-0.261-0.226-0.603-0.364-0.978-0.364-0.198 0-0.387 0.038-0.559 0.108l0.010-0.004-23.070 9.063c-0.562 0.225-0.951 0.765-0.951 1.396 0 0.724 0.513 1.329 1.196 1.469l0.010 0.002 6.262 1.252v7.729c-0 0.005-0 0.010-0 0.016 0 0.617 0.379 1.146 0.916 1.367l0.010 0.004c0.172 0.074 0.373 0.117 0.583 0.118h0c0.412-0.001 0.784-0.171 1.051-0.443l3.575-3.575 5.274 4.641c0.261 0.233 0.607 0.375 0.986 0.375h0c0.166-0 0.326-0.027 0.476-0.077l-0.011 0.003c0.503-0.163 0.882-0.573 1-1.082l0.002-0.010 4.702-20.517c0.024-0.101 0.038-0.217 0.038-0.336 0-0.453-0.201-0.859-0.52-1.134l-0.002-0.002zM4.034 14.59c-0.002-0.017-0.003-0.036-0.003-0.055 0-0.208 0.131-0.385 0.315-0.453l0.003-0.001 21.147-8.308-14.613 10.553-6.45-1.29c-0.219-0.039-0.386-0.221-0.4-0.445l-0-0.001zM12.354 25.352c-0.090 0.090-0.215 0.146-0.354 0.146-0.276 0-0.5-0.224-0.5-0.5v0-7.033l4.383 3.857zM28.089 5.594l-4.702 20.517c-0.053 0.224-0.251 0.388-0.487 0.388-0.127 0-0.243-0.047-0.331-0.125l0.001 0-10.769-9.477 16.208-11.706c0.059 0.079 0.095 0.178 0.095 0.286 0 0.041-0.005 0.082-0.015 0.12l0.001-0.003z"></path>
</symbol>
<symbol id="whatsapp-svgrepo-com" viewBox="0 0 32 32">
<path d="M16 2.667c-7.364 0-13.333 5.969-13.333 13.333 0 2.187 0.527 4.253 1.462 6.076l-1.435 6.026c-0.017 0.069-0.027 0.149-0.027 0.231 0 0.552 0.448 1 1 1 0.082 0 0.162-0.010 0.238-0.029l-0.007 0.001 6.026-1.435c1.823 0.935 3.889 1.462 6.076 1.462 7.364 0 13.333-5.97 13.333-13.333s-5.97-13.333-13.333-13.333zM4.667 16c0-6.259 5.074-11.333 11.333-11.333s11.333 5.074 11.333 11.333-5.074 11.333-11.333 11.333c-1.981 0-3.84-0.507-5.458-1.398-0.139-0.078-0.305-0.124-0.482-0.124-0.082 0-0.162 0.010-0.238 0.029l0.007-0.001-4.812 1.146 1.146-4.812c0.017-0.070 0.027-0.149 0.027-0.232 0-0.177-0.046-0.343-0.127-0.487l0.003 0.005c-0.891-1.618-1.398-3.477-1.398-5.458zM12.337 19.663c1.996 1.996 4.657 3.334 7.625 3.653 1.963 0.21 3.371-1.407 3.371-3.086v-1.166c0-0 0-0 0-0 0-1.421-0.938-2.623-2.229-3.020l-0.022-0.006-0.093-0.028-1.432-0.282c-0.238-0.064-0.51-0.101-0.792-0.101-0.652 0-1.258 0.197-1.761 0.536l0.011-0.007c-0.439-0.348-0.823-0.732-1.16-1.157l-0.011-0.015c0.331-0.492 0.529-1.098 0.529-1.75 0-0.281-0.037-0.554-0.106-0.814l0.005 0.022-0.264-1.337-0.019-0.095-0.028-0.093c-0.403-1.313-1.605-2.251-3.026-2.251h-1.166c-1.679 0-3.297 1.408-3.086 3.37 0.319 2.968 1.657 5.63 3.653 7.626zM17.946 17.966c0.21-0.21 0.5-0.339 0.82-0.339 0.119 0 0.233 0.018 0.341 0.051l-0.008-0.002 1.409 0.277c0.482 0.148 0.826 0.589 0.826 1.11v0 1.166c0 0.64-0.521 1.166-1.157 1.098-1.68-0.184-3.201-0.733-4.526-1.565l0.044 0.026c-0.734-0.459-1.371-0.967-1.943-1.54l-0-0c-0.573-0.573-1.081-1.209-1.514-1.899l-0.026-0.045c-0.806-1.28-1.355-2.802-1.534-4.434l-0.004-0.048c-0.068-0.636 0.457-1.157 1.097-1.157h1.166c0.521 0 0.962 0.344 1.108 0.818l0.002 0.008 0.278 1.409c0.031 0.1 0.049 0.214 0.049 0.333 0 0.32-0.13 0.61-0.339 0.82l-0.187 0.187c-0.12 0.12-0.21 0.27-0.256 0.438l-0.002 0.007c-0.062 0.234-0.034 0.487 0.101 0.704 0.385 0.616 0.811 1.149 1.291 1.63v0c0.48 0.48 1.014 0.906 1.592 1.269l0.038 0.022c0.217 0.134 0.47 0.163 0.704 0.101 0.175-0.048 0.325-0.137 0.445-0.257l0.187-0.187z"></path>
</symbol>
<symbol id="logo" viewBox="0 0 32 32">
<path d="M19.561 31.602c7.123-1.619 12.439-7.99 12.439-15.602 0-8.837-7.163-16-16-16s-16 7.163-16 16c0 6.080 3.391 11.367 8.385 14.075 0.077-3.985 1.417-8.711 5.281-13.516l-3.698-2.687h4.705l1.454-4.475 1.454 4.475h4.705l-3.807 2.766 1.454 4.475-3.78-2.747c0.355 4.004 1.331 8.967 3.407 13.237z"></path>
</symbol>
</defs>
</svg>
